<svg xmlns="http://www.w3.org/2000/svg" viewBox="0 0 16 16" width="16" height="16" fill="none">
  <path d="M2 8c0-3.3 2.7-6 6-6 2 0 3.5 1 4.5 2.5S13 8 11 9.5 8 9 8 8" stroke="#A855F7" stroke-width="1" stroke-linecap="round" />

  <path d="M14 8c0 3.3-2.7 6-6 6-2 0-3.5-1-4.5-2.5S3 8 5 6.5 8 7 8 8" stroke="#3B82F6" stroke-width="1" stroke-linecap="round" />

  <circle cx="4" cy="4" r="0.75" fill="#E9D5FF" />
  <circle cx="12" cy="12" r="0.75" fill="#93C5FD" />
  <circle cx="13" cy="5" r="0.5" fill="#FFFFFF" />
  <circle cx="3" cy="11" r="0.5" fill="#FFFFFF" />

  <circle cx="8" cy="8" r="1.5" fill="#F59E0B" />
  <circle cx="8" cy="8" r="0.75" fill="#FFFFFF" />
</svg>
